<?xml version="1.0" standalone="no"?>
<!DOCTYPE svg PUBLIC "-//W3C//DTD SVG 1.1//EN" "http://www.w3.org/Graphics/SVG/1.1/DTD/svg11.dtd" >
<svg xmlns="http://www.w3.org/2000/svg">
<metadata>
This is a custom SVG webfont generated by Font Squirrel.
Copyright   : c 2001 Ray Larabie See attached license agreement for more information If EULA is missing visit wwwlarabiefontscom for an updated version of this font
Designer    : Ray Larabie
Foundry     : Ray Larabie
Foundry URL : httpwwwlarabiefontscom
</metadata>
<defs>
<font id="SteelfishRegular" horiz-adv-x="618" >
<font-face units-per-em="2048" ascent="1741" descent="-307" />
<missing-glyph horiz-adv-x="278" />
<glyph unicode=" "  horiz-adv-x="278" />
<glyph unicode="&#x09;" horiz-adv-x="278" />
<glyph unicode="&#xa0;" horiz-adv-x="278" />
<glyph unicode="!" horiz-adv-x="342" d="M80 0v182h184v-182h-184zM80 911v906h184v-899l-47 -556h-92z" />
<glyph unicode="&#x22;" horiz-adv-x="387" d="M63 1636v181h154v-181l-43 -274h-68zM317 1636v181h156v-181l-43 -274h-70z" />
<glyph unicode="#" horiz-adv-x="835" d="M-4 926l31 121h145l53 188h-145l31 123h145l106 405h125l-106 -405h186l107 405h121l-107 -405h154l-31 -123h-154l-51 -188h156l-35 -121h-152l-112 -404h-121l111 404h-191l-108 -404h-121l108 404h-145zM297 1047h186l54 188h-191z" />
<glyph unicode="$" horiz-adv-x="700" d="M49 399v226h182v-338q0 -84 72 -101v641q-129 113 -191.5 238t-62.5 235v117q0 367 254 398v100h84v-100q254 -27 254 -398v-166h-182v279q0 82 -72 100v-633q10 -14 23.5 -27.5t25.5 -27.5q205 -217 205 -383v-160q0 -371 -254 -397v-115h-84v115q-254 30 -254 397z M231 1284q0 -68 72 -176v522q-72 -16 -72 -100v-246zM387 186q72 18 72 101v209q0 94 -72 215v-525z" />
<glyph unicode="%" horiz-adv-x="1132" d="M53 1290v250q0 279 193 279q190 0 190 -279v-250q0 -276 -190 -276q-193 0 -193 276zM125 0l766 1817h110l-763 -1817h-113zM182 1212q0 -74 64 -73q66 0 65 73v408q0 74 -65 74q-63 0 -64 -74v-408zM680 276v252q0 279 192 279q190 0 191 -279v-252q0 -276 -191 -276 q-192 0 -192 276zM809 201q0 -76 63 -76q66 0 66 76v405q0 76 -66 76q-63 0 -63 -76v-405z" />
<glyph unicode="&#x26;" horiz-adv-x="790" d="M33 399v74q0 135 41 255t133 237q-123 328 -123 508q0 344 250 344q229 0 229 -344q0 -217 -166 -506l158 -480l49 140h152l-123 -426q18 -43 74 -43q25 0 49 8v-166h-92q-100 0 -127 76q-70 -76 -211 -76q-293 0 -293 399zM213 332q0 -150 113 -150q104 0 129 45 l-168 543q-74 -102 -74 -299v-139zM266 1491q0 -70 12.5 -150.5t34.5 -179.5q88 182 88 332v37q0 106 -67.5 106t-67.5 -106v-39z" />
<glyph unicode="'" horiz-adv-x="212" d="M63 1636v181h154v-181l-43 -274h-68z" />
<glyph unicode="(" horiz-adv-x="432" d="M49 217v1382q0 399 305 400v-109q-195 0 -194 -254v-1454q0 -254 194 -254v-110q-305 0 -305 399z" />
<glyph unicode=")" horiz-adv-x="432" d="M49 -72q195 0 195 254v1454q0 254 -195 254v109q303 0 303 -400v-1382q0 -399 -303 -399v110z" />
<glyph unicode="*" horiz-adv-x="714" d="M45 801l234 100l-234 103l119 163l168 -192l26 256l193 -64l-131 -221l250 58v-203l-250 55l131 -217l-193 -64l-26 252l-168 -188z" />
<glyph unicode="+" horiz-adv-x="608" d="M37 854v145h194v195h146v-195h192v-145h-192v-195h-146v195h-194z" />
<glyph unicode="," horiz-adv-x="256" d="M41 29v188h164v-180q0 -86 -34 -126t-103 -40v80q74 0 73 78h-100z" />
<glyph unicode="-" horiz-adv-x="376" d="M37 854v145h303v-145h-303z" />
<glyph unicode="." horiz-adv-x="256" d="M41 0v217h164v-217h-164z" />
<glyph unicode="/" horiz-adv-x="477" d="M4 0l350 1817h111l-348 -1817h-113z" />
<glyph unicode="0" horiz-adv-x="690" d="M72 399v1018q0 399 274 400q272 0 272 -400v-1018q0 -399 -272 -399q-274 0 -274 399zM254 287q0 -104 92 -105q90 0 90 105v1243q0 106 -90 106q-92 0 -92 -106v-1243z" />
<glyph unicode="1" horiz-adv-x="389" d="M35 1454v182q98 0 98 138v43h182v-1817h-182v1454h-98z" />
<glyph unicode="2" horiz-adv-x="690" d="M72 0v346q0 238 180 504q92 135 138 259t46 241v180q0 106 -90 106q-92 0 -92 -106v-279h-182v166q0 399 274 400q272 0 272 -400v-100q0 -248 -180 -514q-92 -135 -137 -254t-45 -230v-137h362v-182h-546z" />
<glyph unicode="3" horiz-adv-x="690" d="M72 399v226h182v-338q0 -104 92 -105q90 0 90 105v444q0 49 -21.5 77t-66.5 28h-59v182h67q80 0 80 104v408q0 106 -90 106q-92 0 -92 -106v-279h-182v166q0 399 274 400q272 0 272 -400v-182q0 -246 -112 -309q113 -63 112 -308v-219q0 -399 -272 -399q-274 0 -274 399z " />
<glyph unicode="4" horiz-adv-x="686" d="M16 362v193l373 1262h170v-1272h92v-183h-92v-362h-170v362h-373zM188 545h201v760l-51 -220z" />
<glyph unicode="5" horiz-adv-x="694" d="M72 879v938h546v-181h-364v-546q43 37 96 36q272 0 273 -399v-328q0 -399 -272.5 -399t-272.5 399v226h180v-338q0 -104 92 -105q90 0 90 105v553q0 121 -108 121q-90 0 -105 -82h-155z" />
<glyph unicode="6" horiz-adv-x="690" d="M72 399v1018q0 399 274 400q272 0 272 -400v-166h-182v279q0 106 -90 106q-92 0 -92 -106v-443q41 35 92 35q272 0 272 -399v-324q0 -399 -272 -399q-274 0 -274 399zM254 287q0 -104 92 -105q90 0 90 105v547q0 106 -90 106t-92 -98v-555z" />
<glyph unicode="7" horiz-adv-x="598" d="M25 1636v181h546v-201q-150 -338 -207 -742.5t-59 -873.5h-180q0 459 69.5 868.5t219.5 767.5h-389z" />
<glyph unicode="8" horiz-adv-x="690" d="M72 399v219q0 244 112 308q-113 63 -112 309v182q0 399 274 400q272 0 272 -400v-182q0 -246 -112 -309q113 -63 112 -308v-219q0 -399 -272 -399q-274 0 -274 399zM254 287q0 -104 92 -105q90 0 90 105v444q0 49 -21.5 77t-66.5 28q-94 0 -94 -105v-444zM254 1122 q0 -49 23.5 -76.5t70.5 -27.5q88 0 88 104v408q0 106 -90 106q-92 0 -92 -106v-408z" />
<glyph unicode="9" horiz-adv-x="690" d="M72 399v166h182v-278q0 -104 92 -105q90 0 90 105v442q-41 -35 -90 -35q-274 0 -274 402v321q0 399 274 400q272 0 272 -400v-1018q0 -399 -272 -399q-274 0 -274 399zM254 983q0 -106 92 -106q86 0 90 98v555q0 106 -90 106q-92 0 -92 -106v-547z" />
<glyph unicode=":" horiz-adv-x="256" d="M41 0v217h164v-217h-164zM41 623v217h164v-217h-164z" />
<glyph unicode=";" horiz-adv-x="256" d="M41 29v188h164v-180q0 -86 -34 -126t-103 -40v80q74 0 73 78h-100zM41 623v217h164v-217h-164z" />
<glyph unicode="&#x3c;" horiz-adv-x="616" d="M37 836v180l541 231v-102l-512 -213l512 -227v-103z" />
<glyph unicode="=" horiz-adv-x="540" d="M37 672v127h448v-127h-448zM37 981v127h448v-127h-448z" />
<glyph unicode="&#x3e;" horiz-adv-x="616" d="M37 602v103l510 213l-510 227v102l541 -233v-180z" />
<glyph unicode="?" horiz-adv-x="700" d="M72 1251v166q0 399 274 400q272 0 272 -400v-69q0 -248 -112 -379q-113 -133 -113 -344v-263h-184v287q0 236 110 369q55 66 86 154t31 204v154q0 106 -90 106q-92 0 -92 -106v-279h-182zM209 0v182h184v-182h-184z" />
<glyph unicode="@" horiz-adv-x="972" d="M66 442v826q0 369 417 368q420 0 420 -368v-609q0 -199 -182 -198q-90 0 -135 55q-31 -55 -111 -55q-143 0 -143 207v65q0 51 23.5 90t55 68t66.5 50.5t58 37.5v190q0 57 -48 58q-45 0 -45 -58v-163h-100v120q0 207 145 207q150 0 150 -207v-503q0 -55 80 -56q82 0 82 56 v688q0 213 -318 213q-307 0 -307 -213v-811q0 -201 227 -213h455v-99h-418q-372 0 -372 254zM434 625q0 -59 45 -60q55 0 56 60v227q-39 -20 -70 -44t-31 -85v-98z" />
<glyph unicode="A" horiz-adv-x="665" d="M0 0l242 1817h182l242 -1817h-185l-35 272h-231l-31 -272h-184zM242 467h180l-62 512l-28 321l-27 -319z" />
<glyph unicode="B" horiz-adv-x="690" d="M72 0v1817h274q272 0 272 -400v-182q0 -246 -131 -309q131 -63 131 -308v-219q0 -399 -272 -399h-274zM254 182h92q90 0 90 105v444q0 49 -21.5 77t-66.5 28h-94v-654zM254 1018h94q88 0 88 104v408q0 106 -90 106h-92v-618z" />
<glyph unicode="C" horiz-adv-x="671" d="M72 399v1018q0 399 274 400q262 0 262 -400v-166h-172v279q0 106 -90 106q-92 0 -92 -106v-1243q0 -104 92 -105q90 0 90 105v338h172v-226q0 -399 -262 -399q-274 0 -274 399z" />
<glyph unicode="D" horiz-adv-x="690" d="M72 0v1817h274q272 0 272 -400v-1018q0 -399 -272 -399h-274zM254 182h92q90 0 90 105v1243q0 106 -90 106h-92v-1454z" />
<glyph unicode="E" horiz-adv-x="579" d="M72 0v1817h463v-181h-281v-618h160v-182h-160v-654h281v-182h-463z" />
<glyph unicode="F" horiz-adv-x="567" d="M72 0v1817h463v-181h-281v-618h160v-182h-160v-836h-182z" />
<glyph unicode="G" horiz-adv-x="684" d="M72 399v1018q0 399 276 400q279 0 279 -400v-166h-174v279q0 106 -105 106q-94 0 -94 -106v-1243q0 -104 92 -105q104 0 105 105v370h-103v179h277v-836l-88 123q-53 -123 -191 -123q-274 0 -274 399z" />
<glyph unicode="H" horiz-adv-x="690" d="M72 0v1817h182v-799h182v799h182v-1817h-182v836h-182v-836h-182z" />
<glyph unicode="I" horiz-adv-x="327" d="M72 0v1817h182v-1817h-182z" />
<glyph unicode="J" horiz-adv-x="430" d="M45 0v182h51q90 0 90 105v1530h183v-1418q0 -399 -273 -399h-51z" />
<glyph unicode="K" horiz-adv-x="735" d="M72 0v1817h182v-830l49 162l219 668h191l-303 -885l321 -932h-192l-236 715l-49 162v-877h-182z" />
<glyph unicode="L" horiz-adv-x="559" d="M72 0v1817h182v-1635h281v-182h-463z" />
<glyph unicode="M" horiz-adv-x="980" d="M72 0v1817h266l121 -979l28 -322l29 320l121 981h272v-1817h-164v1421l-22 -217l-160 -1204h-149l-160 1221l-18 198v-1419h-164z" />
<glyph unicode="N" horiz-adv-x="749" d="M72 0v1817h219l186 -1035l37 -276v1311h162v-1817h-217l-191 1067l-32 244v-1311h-164z" />
<glyph unicode="O" horiz-adv-x="690" d="M72 399v1018q0 399 274 400q272 0 272 -400v-1018q0 -399 -272 -399q-274 0 -274 399zM254 287q0 -104 92 -105q90 0 90 105v1243q0 106 -90 106q-92 0 -92 -106v-1243z" />
<glyph unicode="P" horiz-adv-x="700" d="M72 0v1817h280q301 0 301 -418v-72q0 -418 -299 -418h-100v-909h-182zM254 1090h100q119 0 119 122v301q0 123 -121 123h-98v-546z" />
<glyph unicode="Q" horiz-adv-x="690" d="M72 399v1018q0 399 274 400q272 0 272 -400v-1018q0 -358 -219 -395v-16q0 -51 20.5 -72.5t63.5 -21.5q70 0 135 40v-129q-84 -37 -151 -36q-88 0 -134 56t-48 179q-213 43 -213 395zM254 287q0 -104 92 -105q90 0 90 105v1243q0 106 -90 106q-92 0 -92 -106v-1243z" />
<glyph unicode="R" horiz-adv-x="692" d="M72 0v1817h280q301 0 301 -381v-201q0 -250 -139 -358l135 -877h-184l-115 836h-96v-836h-182zM254 1018h100q119 0 119 123v372q0 123 -121 123h-98v-618z" />
<glyph unicode="S" horiz-adv-x="663" d="M72 399v226h182v-338q0 -104 78 -104.5t78 104.5v209q0 164 -170 383q-168 217 -168 421v117q0 399 260 400q258 0 258 -400v-166h-180v279q0 106 -78 106t-78 -106v-246q0 -119 168 -342q168 -219 168 -383v-160q0 -399 -258 -399q-260 0 -260 399z" />
<glyph unicode="T" horiz-adv-x="559" d="M6 1636v181h545v-181h-180v-1636h-183v1636h-182z" />
<glyph unicode="U" horiz-adv-x="690" d="M72 399v1418h182v-1530q0 -104 92 -105q90 0 90 105v1530h182v-1418q0 -399 -272 -399q-274 0 -274 399z" />
<glyph unicode="V" horiz-adv-x="665" d="M0 1817h184l121 -979l27 -322l26 320l123 981h185l-242 -1817h-182z" />
<glyph unicode="W" horiz-adv-x="1110" d="M0 1817h184l121 -979l29 -322l26 320l121 981h148l121 -979l28 -322l29 320l119 981h184l-238 -1817h-167l-150 1159l-145 -1159h-168z" />
<glyph unicode="X" horiz-adv-x="692" d="M2 0l250 979l-207 838h186l117 -562l113 562h188l-209 -838l252 -979h-188l-156 700l-158 -700h-188z" />
<glyph unicode="Y" horiz-adv-x="659" d="M0 1817h186l109 -562l35 -243l32 243l109 562h188l-239 -1041v-776h-182v776z" />
<glyph unicode="Z" horiz-adv-x="610" d="M35 0v205l377 1431h-359v181h525v-222l-363 -1413h363v-182h-543z" />
<glyph unicode="[" horiz-adv-x="432" d="M49 -184v2183h305v-109h-194v-1962h194v-112h-305z" />
<glyph unicode="\" horiz-adv-x="491" d="M14 1817h109l352 -1817h-115z" />
<glyph unicode="]" horiz-adv-x="432" d="M49 -72l195 -4v1966h-195v109h303v-2181h-303v110z" />
<glyph unicode="^" horiz-adv-x="694" d="M25 1276l233 541h180l232 -541h-103l-213 512l-227 -512h-102z" />
<glyph unicode="_" horiz-adv-x="724" d="M0 -182h727v-180h-727v180z" />
<glyph unicode="`" horiz-adv-x="358" d="M33 2015h196l109 -117h-92z" />
<glyph unicode="a" horiz-adv-x="616" d="M72 319v103q0 80 36.5 140.5t88 106.5t104.5 77.5t86 54.5v295q0 90 -74 90q-68 0 -67 -90v-254h-158v186q0 322 225 322q229 0 230 -322v-1028h-156v59q-41 -59 -129 -59q-186 0 -186 319zM229 254q0 -92 74 -92q84 0 84 92v352l-59 -32q-29 -15 -50.5 -36.5t-35 -53 t-13.5 -81.5v-149z" />
<glyph unicode="b" d="M72 0v1817h157v-523q27 55 129 56q186 0 187 -322v-709q0 -319 -205 -319q-125 0 -172 102l-25 -102h-71zM229 254q0 -92 80 -92t80 92v842q0 90 -80 90t-80 -90v-842z" />
<glyph unicode="c" horiz-adv-x="608" d="M72 319v709q0 322 235 322q238 0 238 -322v-186h-156v254q0 90 -82 90q-78 0 -78 -90v-842q0 -92 78 -92q82 0 82 92v260h156v-195q0 -319 -238 -319q-235 0 -235 319z" />
<glyph unicode="d" d="M72 319v709q0 322 178 322q111 0 139 -56v523h156v-1817h-156v61q-68 -61 -139 -61q-178 0 -178 319zM229 254q0 -92 80 -92t80 92v842q0 90 -80 90t-80 -90v-842z" />
<glyph unicode="e" d="M72 319v709q0 322 235 322q238 0 238 -322v-383h-316v-391q0 -92 78 -92q82 0 82 92v260h156v-195q0 -319 -238 -319q-235 0 -235 319zM229 805h160v291q0 90 -82 90q-78 0 -78 -90v-291z" />
<glyph unicode="f" horiz-adv-x="319" d="M0 1186v164h59v147q0 319 260 320v-164q-104 0 -104 -90v-213h72v-164h-72v-1186h-156v1186h-59z" />
<glyph unicode="g" d="M72 352v676q0 322 178 322q72 0 139 -62v62h156v-1350q0 -319 -238 -319q-211 0 -231 247h153q2 -88 78 -88q82 0 82 94v152q-29 -53 -139 -53q-178 0 -178 319zM229 287q0 -92 80 -92q70 0 80 77v824q0 92 -80 92t-80 -92v-809z" />
<glyph unicode="h" d="M72 0v1817h157v-523q27 55 129 56q186 0 187 -322v-1028h-156v1096q0 90 -80 90t-80 -90v-1096h-157z" />
<glyph unicode="i" horiz-adv-x="303" d="M72 0v1350h157v-1350h-157zM72 1569v248h157v-248h-157z" />
<glyph unicode="j" horiz-adv-x="315" d="M-37 -158q123 0 123 121v1387h158v-1334q0 -336 -281 -335v161zM86 1569v248h158v-248h-158z" />
<glyph unicode="k" horiz-adv-x="608" d="M72 0v1817h157v-1090l205 623h164l-236 -682l234 -668h-166l-201 618v-618h-157z" />
<glyph unicode="l" horiz-adv-x="264" d="M53 0v1817h156v-1817h-156z" />
<glyph unicode="m" horiz-adv-x="931" d="M72 0v1350h157v-56q27 55 129 56q96 0 150 -86q45 86 164 86q186 0 186 -322v-1028h-156v1096q0 90 -79 90q-78 0 -78 -88v-1098h-156v1096q0 90 -80 90t-80 -90v-1096h-157z" />
<glyph unicode="n" d="M72 0v1350h157v-56q27 55 129 56q186 0 187 -322v-1028h-156v1096q0 90 -80 90t-80 -90v-1096h-157z" />
<glyph unicode="o" d="M72 319v709q0 322 235 322q238 0 238 -322v-709q0 -319 -238 -319q-235 0 -235 319zM229 254q0 -92 78 -92q82 0 82 92v842q0 90 -82 90q-78 0 -78 -90v-842z" />
<glyph unicode="p" d="M72 -319v1669h157v-62q63 61 140 62q176 0 176 -322v-709q0 -319 -176 -319q-113 0 -140 55v-374h-157zM229 254q0 -90 80 -90t80 90v842q0 92 -80 92t-80 -92v-842z" />
<glyph unicode="q" d="M72 319v709q0 322 178 322q72 0 139 -62v62h156v-1669h-156v374q-29 -55 -139 -55q-178 0 -178 319zM229 254q0 -90 80 -90t80 90v842q0 92 -80 92t-80 -92v-842z" />
<glyph unicode="r" horiz-adv-x="395" d="M72 0v1350h157v-56q27 55 138 56v-199q-23 35 -58 35q-80 0 -80 -90v-1096h-157z" />
<glyph unicode="s" horiz-adv-x="557" d="M57 346v57h154v-155q0 -94 68 -94q70 0 69 94v125q0 111 -145.5 268.5t-145.5 364.5q0 344 217 344q221 0 222 -344v-115h-158v211q0 92 -63.5 92t-63.5 -92v-125q0 -102 145 -285q147 -184 148 -354q0 -338 -225 -338q-222 0 -222 346z" />
<glyph unicode="t" horiz-adv-x="356" d="M12 1186v164h64v467h155v-467h74v-164h-74v-932q0 -90 84 -90v-164q-240 0 -239 319v867h-64z" />
<glyph unicode="u" d="M72 319v1031h157v-1096q0 -90 80 -90t80 90v1096h156v-1350h-156v55q-29 -55 -131 -55q-186 0 -186 319z" />
<glyph unicode="v" horiz-adv-x="544" d="M12 1350h160l76 -600l24 -287l23 285l76 602h164l-181 -1350h-164z" />
<glyph unicode="w" horiz-adv-x="860" d="M12 1350h160l76 -600l24 -287l23 285l76 602h116l76 -600l25 -287l22 285l76 602h164l-180 -1350h-142l-98 743l-98 -743h-142z" />
<glyph unicode="x" horiz-adv-x="538" d="M12 0l170 666l-168 684h166l58 -291l32 -141l86 432h168l-170 -684l172 -666h-166l-90 412l-92 -412h-166z" />
<glyph unicode="y" horiz-adv-x="559" d="M18 1350h162l74 -600l25 -287l24 285l74 602h164l-181 -1350q-23 -166 -105.5 -242.5t-211.5 -76.5v161q137 8 162 158z" />
<glyph unicode="z" horiz-adv-x="548" d="M63 0v178l279 1008h-272v164h415v-193l-268 -995h266v-162h-420z" />
<glyph unicode="{" horiz-adv-x="589" d="M29 909l202 252v438q0 399 306 400v-109q-197 0 -197 -254v-508l-178 -219l178 -223v-504q0 -254 197 -254v-110q-305 0 -306 399v447z" />
<glyph unicode="|" horiz-adv-x="204" d="M47 0v1817h115v-1817h-115z" />
<glyph unicode="}" horiz-adv-x="589" d="M27 -72q197 0 196 254v506l178 221l-178 221v506q0 254 -196 254v109q305 0 305 -400v-446l203 -244l-203 -252v-440q0 -399 -305 -399v110z" />
<glyph unicode="&#xa1;" horiz-adv-x="319" d="M63 -319v899l46 553h94l45 -547v-905h-185zM63 1315v182h185v-182h-185z" />
<glyph unicode="&#xa2;" horiz-adv-x="577" d="M53 319v709q0 307 215 320v206h37v-206q219 -10 219 -320v-186h-155v254q0 80 -64 88v-1022q63 8 64 92v260h155v-195q0 -309 -219 -319v-182h-37v182q-215 12 -215 319zM209 254q0 -82 59 -92v1022q-59 -12 -59 -88v-842z" />
<glyph unicode="&#xa3;" horiz-adv-x="520" d="M29 0v182h69v1260q0 375 330 375v-164q-174 0 -174 -146v-157h166v-164h-166v-1004h238v-182h-463z" />
<glyph unicode="&#xa5;" horiz-adv-x="659" d="M0 1817h186l109 -562l35 -243l32 243l109 562h188l-239 -1041v-776h-182v776zM66 516v93h535v-93h-535zM66 743v93h535v-93h-535z" />
<glyph unicode="&#xa6;" horiz-adv-x="204" d="M47 0v606h113l2 -606h-115zM47 1143v674h113v-674h-113z" />
<glyph unicode="&#xa7;" horiz-adv-x="569" d="M72 299v55h145v-137q0 -80 67.5 -80t67.5 80v27q0 125 -141 291q-139 164 -139 321q0 147 40 222t132 83q-172 168 -172 326v29q0 299 213 299t213 -299v-103h-146v186q0 76 -67.5 76t-67.5 -76v-126q0 -43 32 -98.5t71.5 -106.5t76.5 -93t45 -59q12 -23 21.5 -43 t17.5 -44.5t12.5 -56.5t4.5 -77h-2q-10 -244 -201 -246q18 -16 52 -50t66.5 -80t57.5 -102.5t27 -117.5q0 -299 -213 -299t-213 299zM217 850q0 -82 67.5 -82t67.5 82v117q-4 80 -63 80q-72 0 -72 -80v-117z" />
<glyph unicode="&#xa8;" horiz-adv-x="522" d="M55 1898v117h109v-117h-109zM362 1898v117h113v-117h-113z" />
<glyph unicode="&#xa9;" horiz-adv-x="1480" d="M37 918q0 143 54 273t149.5 226t222.5 153.5t272.5 57.5t274.5 -57.5t226 -153.5t153.5 -226t56.5 -273q0 -145 -56.5 -272.5t-153.5 -222.5t-226 -150.5t-274.5 -55.5t-272.5 55.5t-222.5 150.5t-149.5 222.5t-54 272.5zM147 918q0 -121 47.5 -228.5t127 -187.5 t186 -126t227.5 -46q119 0 226.5 46t188.5 126t128 187.5t47 228.5q0 119 -47 226t-128 187t-188.5 127t-226.5 47q-121 0 -227.5 -47t-186 -127t-127 -187t-47.5 -226zM526 731v352q0 272 199 273q205 0 205 -273v-45h-135v103q0 76 -70 76q-66 0 -66 -76v-467 q0 -78 66 -78q70 0 70 78v84h135v-27q0 -272 -205 -272q-199 0 -199 272z" />
<glyph unicode="&#xaa;" horiz-adv-x="567" d="M117 1192v59q0 41 15 75t40 60.5t54.5 47t58.5 36.5v162q0 41 -29 41q-27 0 -27 -41v-153h-106v118q0 190 133 191q135 0 135 -191v-598h-106v17q-23 -16 -58 -17q-110 0 -110 193zM221 1153q0 -41 29 -41q35 0 35 41v184q-27 -16 -45.5 -33.5t-18.5 -62.5v-88z" />
<glyph unicode="&#xab;" horiz-adv-x="1263" d="M147 586l355 504h164l-291 -504l289 -506h-162zM584 586l348 504h168l-295 -504l295 -506h-168z" />
<glyph unicode="&#xac;" horiz-adv-x="376" d="M37 854v145h303v-145h-303z" />
<glyph unicode="&#xad;" horiz-adv-x="376" d="M37 854v145h303v-145h-303z" />
<glyph unicode="&#xae;" horiz-adv-x="1081" d="M29 1304.5q0 104.5 40 197.5t108.5 163t160.5 111t196.5 41t197.5 -41t163 -111t111 -163t41 -197.5t-41 -196.5t-111 -160.5t-163 -108.5t-197.5 -40t-196.5 40t-160.5 108.5t-108.5 160.5t-40 196.5zM109 1305q0 -88 33.5 -165t92 -135.5t136.5 -92t164 -33.5 t162.5 33.5t135 92t92 135.5t33.5 165q0 86 -33.5 162.5t-92 135t-135 92.5t-162.5 34t-164 -34t-136.5 -92.5t-92 -135t-33.5 -162.5zM332 999v619h196q117 0 168.5 -41t51.5 -127q0 -133 -105 -154l94 -297h-106l-82 285h-113v-285h-104zM436 1346h115q86 0 86 104 q0 106 -86 106h-115v-210z" />
<glyph unicode="&#xaf;" horiz-adv-x="454" d="M72 1898v117h327v-117h-327z" />
<glyph unicode="&#xb0;" horiz-adv-x="831" d="M55 1450q0 76 28 143.5t77 117.5t115.5 80t144.5 30q76 0 143.5 -30t117.5 -80t80 -117.5t30 -143.5t-30 -142.5t-80 -115.5t-117.5 -78t-143.5 -29q-78 0 -144.5 29t-115.5 78t-77 115.5t-28 142.5zM150 1450q0 -55 22.5 -103.5t59 -84t86 -57t102.5 -21.5 q55 0 103 21.5t84 57t57.5 84t21.5 103.5q0 53 -21.5 102.5t-57.5 86t-84 59t-103 22.5q-53 0 -102.5 -22.5t-86 -59t-59 -86t-22.5 -102.5z" />
<glyph unicode="&#xb1;" horiz-adv-x="608" d="M37 854v145h194v195h146v-195h192v-145h-192v-195h-146v195h-194zM59 463v149h496v-149h-496z" />
<glyph unicode="&#xb2;" horiz-adv-x="546" d="M76 651v238q0 145 114 321q53 80 82 152t33 145v115q0 39 -37 39t-37 -39v-199h-155v125q0 268 192.5 268.5t192.5 -268.5v-61q0 -156 -119 -328q-109 -158 -109 -289v-61h228v-158h-385z" />
<glyph unicode="&#xb3;" horiz-adv-x="563" d="M86 922v159h160v-231q0 -41 32.5 -41t32.5 41v276q0 41 -28 41h-62v158h66q25 0 24 43v254q0 39 -32.5 39t-32.5 -39v-199h-160v125q0 268 193 269q195 0 194 -269v-112q0 -139 -98 -191q98 -59 98 -186v-137q0 -270 -194 -271q-193 1 -193 271z" />
<glyph unicode="&#xb4;" horiz-adv-x="358" d="M25 1898l108 117h199l-213 -117h-94z" />
<glyph unicode="&#xb5;" horiz-adv-x="577" d="M53 -322v1672h156v-1096q0 -90 80 -90t80 90v1096h155v-1108q4 -78 51 -78v-164h-55q-76 0 -123 90q-59 -90 -159 -90q-25 0 -29 2v-324h-156z" />
<glyph unicode="&#x3bc;" horiz-adv-x="577" d="M53 -322v1672h156v-1096q0 -90 80 -90t80 90v1096h155v-1108q4 -78 51 -78v-164h-55q-76 0 -123 90q-59 -90 -159 -90q-25 0 -29 2v-324h-156z" />
<glyph unicode="&#xb6;" horiz-adv-x="542" d="M29 1137v680h483v-1817h-115v1137h-112v-1137h-115v1137h-141z" />
<glyph unicode="&#xb7;" horiz-adv-x="256" d="M41 743v218h164v-218h-164z" />
<glyph unicode="&#xb8;" horiz-adv-x="399" d="M82 -207h80q-2 -6 -2 -20q0 -41 33 -41q39 0 38 47q0 35 -15 58.5t-33.5 45t-34 46t-15.5 63.5v22h78v-18q0 -31 15.5 -52.5t34 -43t33.5 -47t15 -64.5q0 -109 -116 -108q-111 0 -111 100v12z" />
<glyph unicode="&#xb9;" horiz-adv-x="354" d="M59 1548v158q63 0 64 61v50h156v-1166h-156v897h-64z" />
<glyph unicode="&#xba;" horiz-adv-x="577" d="M53 946v551q0 319 234 320q238 0 237 -320v-551q0 -319 -237 -319q-234 0 -234 319zM209 881q0 -92 78 -93q82 0 82 93v682q0 90 -82 90q-78 0 -78 -90v-682z" />
<glyph unicode="&#xbb;" horiz-adv-x="1263" d="M154 80l297 506l-297 504h168l348 -504l-348 -506h-168zM588 80l291 506l-291 504h164l354 -504l-354 -506h-164z" />
<glyph unicode="&#xbc;" horiz-adv-x="1269" d="M59 1548v158q63 0 64 61v50h156v-1166h-156v897h-64zM164 0l766 1817h110l-764 -1817h-112zM750 225v146l241 794h146v-784h57v-156h-57v-225h-152v225h-235zM883 381h102v305z" />
<glyph unicode="&#xbd;" horiz-adv-x="1310" d="M76 1548v158q63 0 63 61v50h156v-1166h-156v897h-63zM172 0l766 1817h111l-762 -1817h-115zM836 0v236q0 147 116 323q53 78 83 151.5t30 145.5v115q0 37 -37 37q-35 0 -35 -37v-199h-157v125q0 268 192 268q195 0 195 -268v-61q0 -156 -119 -330q-109 -158 -109 -289 v-59h228v-158h-387z" />
<glyph unicode="&#xbe;" horiz-adv-x="1366" d="M123 922v159h160v-231q0 -41 32.5 -41t32.5 41v276q0 41 -31 41h-61v158h66q27 0 26 43v254q0 39 -32.5 39t-32.5 -39v-199h-160v125q0 268 192.5 268.5t192.5 -268.5v-112q0 -137 -96 -191q96 -59 96 -186v-137q0 -270 -192.5 -270t-192.5 270zM293 0l766 1817h110 l-761 -1817h-115zM840 225v146l241 794h146v-784h59v-156h-59v-225h-150v225h-237zM975 381h102v305z" />
<glyph unicode="&#xbf;" horiz-adv-x="700" d="M78 80v70q0 244 110 376q53 66 84 153t31 193v261h182v-285q0 -238 -110.5 -369t-116.5 -358v-156q0 -104 92 -104q90 0 90 104v281h183v-166q0 -399 -272.5 -399t-272.5 399zM303 1315v182h182v-182h-182z" />
<glyph unicode="&#xc0;" horiz-adv-x="665" d="M0 0l242 1817h182l242 -1817h-185l-35 272h-231l-31 -272h-184zM100 2015h197l109 -117h-93zM242 467h180l-62 512l-28 321l-27 -319z" />
<glyph unicode="&#xc1;" horiz-adv-x="665" d="M0 0l242 1817h182l242 -1817h-185l-35 272h-231l-31 -272h-184zM242 467h180l-62 512l-28 321l-27 -319zM248 1898l108 117h199l-213 -117h-94z" />
<glyph unicode="&#xc2;" horiz-adv-x="665" d="M0 0l242 1817h182l242 -1817h-185l-35 272h-231l-31 -272h-184zM117 1898l166 117h104l164 -117h-164l-53 93l-51 -93h-166zM242 467h180l-62 512l-28 321l-27 -319z" />
<glyph unicode="&#xc3;" horiz-adv-x="665" d="M0 0l242 1817h182l242 -1817h-185l-35 272h-231l-31 -272h-184zM123 1898q0 51 27.5 84t74.5 33q27 0 57.5 -7t59.5 -15l54 -16q26 -7 42 -7q20 0 29.5 13.5t11.5 31.5h68q0 -59 -27.5 -88t-68.5 -29q-27 0 -57 8l-58 14q-29 7 -54.5 14.5t-43.5 7.5q-23 0 -35.5 -9.5 t-14.5 -34.5h-65zM242 467h180l-62 512l-28 321l-27 -319z" />
<glyph unicode="&#xc4;" horiz-adv-x="665" d="M0 0l242 1817h182l242 -1817h-185l-35 272h-231l-31 -272h-184zM123 1898v117h108v-117h-108zM242 467h180l-62 512l-28 321l-27 -319zM430 1898v117h113v-117h-113z" />
<glyph unicode="&#xc5;" horiz-adv-x="665" d="M0 0l242 1817h182l242 -1817h-185l-35 272h-231l-31 -272h-184zM203 1964q0 53 38 92t91 39q51 0 90 -39t39 -92q0 -51 -39 -89t-90 -38q-53 0 -91 38t-38 89zM236 1964q0 -39 28.5 -66.5t67.5 -27.5q37 0 65.5 27.5t28.5 66.5t-28.5 67.5t-65.5 28.5q-39 0 -67.5 -28.5 t-28.5 -67.5zM242 467h180l-62 512l-28 321l-27 -319z" />
<glyph unicode="&#xc6;" horiz-adv-x="854" d="M4 0l330 1817h465v-181h-189v-878h115v-183h-115v-393h189v-182h-369v575h-137l-105 -575h-184zM326 758h104v612l-35 -227z" />
<glyph unicode="&#xc7;" horiz-adv-x="671" d="M72 399v1018q0 399 274 400q262 0 262 -400v-166h-172v279q0 106 -90 106q-92 0 -92 -106v-1243q0 -104 92 -105q90 0 90 105v338h172v-226q0 -399 -262 -399q-274 0 -274 399zM244 -207h80q-2 -6 -2 -20q0 -41 32 -41q39 0 39 47q0 35 -15.5 58.5t-33.5 45t-33.5 46 t-15.5 63.5v22h78v-18q0 -31 15 -52.5t33.5 -43t34 -47t15.5 -64.5q0 -109 -117 -108q-111 0 -110 100v12z" />
<glyph unicode="&#xc8;" horiz-adv-x="579" d="M72 0v1817h463v-181h-281v-618h160v-182h-160v-654h281v-182h-463zM78 2015h196l109 -117h-92z" />
<glyph unicode="&#xc9;" horiz-adv-x="579" d="M72 0v1817h463v-181h-281v-618h160v-182h-160v-654h281v-182h-463zM166 1898l108 117h199l-213 -117h-94z" />
<glyph unicode="&#xca;" horiz-adv-x="579" d="M72 0v1817h463v-181h-281v-618h160v-182h-160v-654h281v-182h-463zM88 1888l166 117h104l164 -117h-164l-53 92l-51 -92h-166z" />
<glyph unicode="&#xcb;" horiz-adv-x="579" d="M72 0v1817h463v-181h-281v-618h160v-182h-160v-654h281v-182h-463zM94 1898v117h109v-117h-109zM401 1898v117h113v-117h-113z" />
<glyph unicode="&#xcc;" horiz-adv-x="327" d="M-49 2015h196l109 -117h-92zM72 0v1817h182v-1817h-182z" />
<glyph unicode="&#xcd;" horiz-adv-x="327" d="M70 1898l108 117h199l-213 -117h-94zM72 0v1817h182v-1817h-182z" />
<glyph unicode="&#xce;" horiz-adv-x="327" d="M-47 1898l166 117h104l164 -117h-164l-53 93l-51 -93h-166zM72 0v1817h182v-1817h-182z" />
<glyph unicode="&#xcf;" horiz-adv-x="327" d="M-35 1898v117h109v-117h-109zM72 0v1817h182v-1817h-182zM272 1898v117h113v-117h-113z" />
<glyph unicode="&#xd0;" horiz-adv-x="690" d="M14 854v145h303v-145h-303zM72 0v1817h274q272 0 272 -400v-1018q0 -399 -272 -399h-274zM254 182h92q90 0 90 105v1243q0 106 -90 106h-92v-1454z" />
<glyph unicode="&#xd1;" horiz-adv-x="749" d="M72 0v1817h219l186 -1035l37 -276v1311h162v-1817h-217l-191 1067l-32 244v-1311h-164zM166 1898q0 51 27.5 84t74.5 33q27 0 57.5 -7t59.5 -15l54 -16q26 -7 42 -7q20 0 29.5 13.5t11.5 31.5h68q0 -59 -27.5 -88t-68.5 -29q-27 0 -57 8l-58 14q-29 7 -54.5 14.5 t-43.5 7.5q-23 0 -35.5 -9.5t-14.5 -34.5h-65z" />
<glyph unicode="&#xd2;" horiz-adv-x="690" d="M72 399v1018q0 399 274 400q272 0 272 -400v-1018q0 -399 -272 -399q-274 0 -274 399zM90 2015h197l108 -117h-92zM254 287q0 -104 92 -105q90 0 90 105v1243q0 106 -90 106q-92 0 -92 -106v-1243z" />
<glyph unicode="&#xd3;" horiz-adv-x="690" d="M72 399v1018q0 399 274 400q272 0 272 -400v-1018q0 -399 -272 -399q-274 0 -274 399zM254 287q0 -104 92 -105q90 0 90 105v1243q0 106 -90 106q-92 0 -92 -106v-1243zM266 1898l109 117h198l-213 -117h-94z" />
<glyph unicode="&#xd4;" horiz-adv-x="690" d="M72 399v1018q0 399 274 400q272 0 272 -400v-1018q0 -399 -272 -399q-274 0 -274 399zM125 1898l166 117h104l164 -117h-164l-53 93l-51 -93h-166zM254 287q0 -104 92 -105q90 0 90 105v1243q0 106 -90 106q-92 0 -92 -106v-1243z" />
<glyph unicode="&#xd5;" horiz-adv-x="690" d="M72 399v1018q0 399 274 400q272 0 272 -400v-1018q0 -399 -272 -399q-274 0 -274 399zM137 1898q0 51 28 84t75 33q27 0 57.5 -7t58.5 -15l55 -16q26 -7 42 -7q20 0 29.5 13.5t11.5 31.5h67q0 -59 -27.5 -88t-68.5 -29q-27 0 -56 8l-59 14q-29 7 -54.5 14.5t-43.5 7.5 q-23 0 -35 -9.5t-14 -34.5h-66zM254 287q0 -104 92 -105q90 0 90 105v1243q0 106 -90 106q-92 0 -92 -106v-1243z" />
<glyph unicode="&#xd6;" horiz-adv-x="690" d="M72 399v1018q0 399 274 400q272 0 272 -400v-1018q0 -399 -272 -399q-274 0 -274 399zM135 1898v117h109v-117h-109zM254 287q0 -104 92 -105q90 0 90 105v1243q0 106 -90 106q-92 0 -92 -106v-1243zM442 1898v117h113v-117h-113z" />
<glyph unicode="&#xd7;" horiz-adv-x="608" d="M63 786l138 138l-138 139l103 102l139 -137l137 137l103 -102l-137 -139l135 -136l-103 -102l-135 135l-139 -137z" />
<glyph unicode="&#xd8;" horiz-adv-x="690" d="M72 399v1018q0 399 274 400q272 0 272 -400v-1018q0 -399 -272 -399q-274 0 -274 399zM104 0l351 1817h110l-348 -1817h-113zM254 287q0 -104 92 -105q90 0 90 105v1243q0 106 -90 106q-92 0 -92 -106v-1243z" />
<glyph unicode="&#xd9;" horiz-adv-x="690" d="M72 399v1418h182v-1530q0 -104 92 -105q90 0 90 105v1530h182v-1418q0 -399 -272 -399q-274 0 -274 399zM94 2015h197l108 -117h-92z" />
<glyph unicode="&#xda;" horiz-adv-x="690" d="M72 399v1418h182v-1530q0 -104 92 -105q90 0 90 105v1530h182v-1418q0 -399 -272 -399q-274 0 -274 399zM213 1898l109 117h198l-213 -117h-94z" />
<glyph unicode="&#xdb;" horiz-adv-x="690" d="M72 399v1418h182v-1530q0 -104 92 -105q90 0 90 105v1530h182v-1418q0 -399 -272 -399q-274 0 -274 399zM125 1898l166 117h104l164 -117h-164l-53 93l-51 -93h-166z" />
<glyph unicode="&#xdc;" horiz-adv-x="690" d="M72 399v1418h182v-1530q0 -104 92 -105q90 0 90 105v1530h182v-1418q0 -399 -272 -399q-274 0 -274 399zM135 1898v117h109v-117h-109zM442 1898v117h113v-117h-113z" />
<glyph unicode="&#xdd;" horiz-adv-x="659" d="M0 1817h186l109 -562l35 -243l32 243l109 562h188l-239 -1041v-776h-182v776zM172 1898l109 117h198l-213 -117h-94z" />
<glyph unicode="&#xde;" horiz-adv-x="700" d="M72 0v1817h182v-465h98q301 0 301 -418v-74q0 -418 -299 -418h-100v-442h-182zM254 625h100q119 0 119 123v299q0 123 -121 122h-98v-544z" />
<glyph unicode="&#xdf;" horiz-adv-x="643" d="M78 0v1462q0 354 248 355q250 0 249 -355v-272q0 -199 -90 -264q90 -66 90 -262v-310q0 -354 -270 -354v158q111 0 111 104v483q0 102 -113 105v156q113 0 113 104v446q0 104 -90 105q-92 0 -93 -105v-1556h-155z" />
<glyph unicode="&#xe0;" horiz-adv-x="616" d="M61 1546h197l109 -116h-93zM72 319v103q0 80 36.5 140.5t88 106.5t104.5 77.5t86 54.5v295q0 90 -74 90q-68 0 -67 -90v-254h-158v186q0 322 225 322q229 0 230 -322v-1028h-156v59q-41 -59 -129 -59q-186 0 -186 319zM229 254q0 -92 74 -92q84 0 84 92v352l-59 -32 q-29 -15 -50.5 -36.5t-35 -53t-13.5 -81.5v-149z" />
<glyph unicode="&#xe1;" horiz-adv-x="616" d="M72 319v103q0 80 36.5 140.5t88 106.5t104.5 77.5t86 54.5v295q0 90 -74 90q-68 0 -67 -90v-254h-158v186q0 322 225 322q229 0 230 -322v-1028h-156v59q-41 -59 -129 -59q-186 0 -186 319zM229 254q0 -92 74 -92q84 0 84 92v352l-59 -32q-29 -15 -50.5 -36.5t-35 -53 t-13.5 -81.5v-149zM229 1430l109 116h199l-213 -116h-95z" />
<glyph unicode="&#xe2;" horiz-adv-x="616" d="M72 319v103q0 80 36.5 140.5t88 106.5t104.5 77.5t86 54.5v295q0 90 -74 90q-68 0 -67 -90v-254h-158v186q0 322 225 322q229 0 230 -322v-1028h-156v59q-41 -59 -129 -59q-186 0 -186 319zM109 1430l165 116h105l164 -116h-164l-53 92l-52 -92h-165zM229 254 q0 -92 74 -92q84 0 84 92v352l-59 -32q-29 -15 -50.5 -36.5t-35 -53t-13.5 -81.5v-149z" />
<glyph unicode="&#xe3;" horiz-adv-x="616" d="M72 319v103q0 80 36.5 140.5t88 106.5t104.5 77.5t86 54.5v295q0 90 -74 90q-68 0 -67 -90v-254h-158v186q0 322 225 322q229 0 230 -322v-1028h-156v59q-41 -59 -129 -59q-186 0 -186 319zM106 1430q0 51 28 83.5t75 32.5q27 0 57.5 -7t59.5 -15l54 -16q26 -7 42 -7 q20 0 29.5 13.5t11.5 31.5h67q0 -59 -27.5 -87.5t-68.5 -28.5q-27 0 -56 7l-59 14q-29 7 -54 14.5t-44 7.5q-23 0 -35 -9.5t-14 -33.5h-66zM229 254q0 -92 74 -92q84 0 84 92v352l-59 -32q-29 -15 -50.5 -36.5t-35 -53t-13.5 -81.5v-149z" />
<glyph unicode="&#xe4;" horiz-adv-x="616" d="M72 319v103q0 80 36.5 140.5t88 106.5t104.5 77.5t86 54.5v295q0 90 -74 90q-68 0 -67 -90v-254h-158v186q0 322 225 322q229 0 230 -322v-1028h-156v59q-41 -59 -129 -59q-186 0 -186 319zM98 1430v116h109v-116h-109zM229 254q0 -92 74 -92q84 0 84 92v352l-59 -32 q-29 -15 -50.5 -36.5t-35 -53t-13.5 -81.5v-149zM406 1430v116h112v-116h-112z" />
<glyph unicode="&#xe5;" horiz-adv-x="616" d="M72 319v103q0 80 36.5 140.5t88 106.5t104.5 77.5t86 54.5v295q0 90 -74 90q-68 0 -67 -90v-254h-158v186q0 322 225 322q229 0 230 -322v-1028h-156v59q-41 -59 -129 -59q-186 0 -186 319zM182 1495q0 53 38 92t91 39q51 0 90 -39t39 -92q0 -51 -39 -89t-90 -38 q-53 0 -91 38t-38 89zM215 1495q0 -39 28.5 -66.5t67.5 -27.5q37 0 66 27.5t29 66.5t-29 67.5t-66 28.5q-39 0 -67.5 -28.5t-28.5 -67.5zM229 254q0 -92 74 -92q84 0 84 92v352l-59 -32q-29 -15 -50.5 -36.5t-35 -53t-13.5 -81.5v-149z" />
<glyph unicode="&#xe6;" horiz-adv-x="931" d="M72 319v103q0 80 36.5 140.5t88 106.5t104.5 77.5t86 54.5v295q0 90 -74 90q-68 0 -67 -90v-254h-158v186q0 322 225 322q96 0 150 -80q57 80 158 80q238 0 237 -322v-383h-315v-391q0 -92 78 -92q82 0 81 92v260h156v-195q0 -319 -225 -319q-106 0 -172 84 q-59 -84 -156 -84q-233 0 -233 319zM229 254q0 -92 74 -92q84 0 84 92v352l-59 -32q-29 -15 -50.5 -36.5t-35 -53t-13.5 -81.5v-149zM543 805h159v291q0 90 -81 90q-78 0 -78 -90v-291z" />
<glyph unicode="&#xe7;" horiz-adv-x="608" d="M72 319v709q0 322 235 322q238 0 238 -322v-186h-156v254q0 90 -82 90q-78 0 -78 -90v-842q0 -92 78 -92q82 0 82 92v260h156v-195q0 -319 -238 -319q-235 0 -235 319zM219 -207h80q-2 -6 -2 -20q0 -41 33 -41q39 0 39 47q0 35 -15.5 58.5t-34 45t-34 46t-15.5 63.5v22 h78v-18q0 -31 15.5 -52.5t34 -43t33.5 -47t15 -64.5q0 -109 -116 -108q-111 0 -111 100v12z" />
<glyph unicode="&#xe8;" d="M72 319v709q0 322 235 322q238 0 238 -322v-383h-316v-391q0 -92 78 -92q82 0 82 92v260h156v-195q0 -319 -238 -319q-235 0 -235 319zM86 1546h197l108 -116h-92zM229 805h160v291q0 90 -82 90q-78 0 -78 -90v-291z" />
<glyph unicode="&#xe9;" d="M72 319v709q0 322 235 322q238 0 238 -322v-383h-316v-391q0 -92 78 -92q82 0 82 92v260h156v-195q0 -319 -238 -319q-235 0 -235 319zM219 1430l109 116h198l-213 -116h-94zM229 805h160v291q0 90 -82 90q-78 0 -78 -90v-291z" />
<glyph unicode="&#xea;" d="M72 319v709q0 322 235 322q238 0 238 -322v-383h-316v-391q0 -92 78 -92q82 0 82 92v260h156v-195q0 -319 -238 -319q-235 0 -235 319zM90 1430l166 116h104l164 -116h-164l-53 92l-51 -92h-166zM229 805h160v291q0 90 -82 90q-78 0 -78 -90v-291z" />
<glyph unicode="&#xeb;" d="M72 319v709q0 322 235 322q238 0 238 -322v-383h-316v-391q0 -92 78 -92q82 0 82 92v260h156v-195q0 -319 -238 -319q-235 0 -235 319zM100 1430v116h109v-116h-109zM229 805h160v291q0 90 -82 90q-78 0 -78 -90v-291zM408 1430v116h112v-116h-112z" />
<glyph unicode="&#xec;" horiz-adv-x="319" d="M-41 1546h197l108 -116h-92zM86 0v1350h158v-1350h-158z" />
<glyph unicode="&#xed;" horiz-adv-x="319" d="M86 0v1350h158v-1350h-158zM92 1430l109 116h198l-213 -116h-94z" />
<glyph unicode="&#xee;" horiz-adv-x="319" d="M-45 1430l166 116h104l164 -116h-164l-53 92l-51 -92h-166zM86 0v1350h158v-1350h-158z" />
<glyph unicode="&#xef;" horiz-adv-x="319" d="M-35 1430v116h109v-116h-109zM86 0v1350h158v-1350h-158zM272 1430v116h113v-116h-113z" />
<glyph unicode="&#xf0;" horiz-adv-x="690" d="M70 399v324q0 399 272 399q51 0 92 -35v443q0 106 -92 106q-90 0 -90 -106v-279h-182v166q0 399 272 400q274 0 274 -400v-1018q0 -399 -274 -399q-272 0 -272 399zM252 287q0 -104 90 -105q92 0 92 105v555q-4 98 -92 98q-90 0 -90 -106v-547z" />
<glyph unicode="&#xf1;" d="M72 0v1350h157v-56q27 55 129 56q186 0 187 -322v-1028h-156v1096q0 90 -80 90t-80 -90v-1096h-157zM88 1430q0 51 27.5 83.5t74.5 32.5q27 0 58 -7t59 -15l54 -16q26 -7 42 -7q20 0 29.5 13.5t11.5 31.5h68q0 -59 -27.5 -87.5t-68.5 -28.5q-27 0 -57 7l-58 14 q-29 7 -54.5 14.5t-43.5 7.5q-23 0 -35 -9.5t-14 -33.5h-66z" />
<glyph unicode="&#xf2;" d="M72 319v709q0 322 235 322q238 0 238 -322v-709q0 -319 -238 -319q-235 0 -235 319zM74 1546h196l109 -116h-92zM229 254q0 -92 78 -92q82 0 82 92v842q0 90 -82 90q-78 0 -78 -90v-842z" />
<glyph unicode="&#xf3;" d="M72 319v709q0 322 235 322q238 0 238 -322v-709q0 -319 -238 -319q-235 0 -235 319zM172 1430l109 116h198l-213 -116h-94zM229 254q0 -92 78 -92q82 0 82 92v842q0 90 -82 90q-78 0 -78 -90v-842z" />
<glyph unicode="&#xf4;" d="M72 319v709q0 322 235 322q238 0 238 -322v-709q0 -319 -238 -319q-235 0 -235 319zM96 1430l166 116h105l163 -116h-163l-54 92l-51 -92h-166zM229 254q0 -92 78 -92q82 0 82 92v842q0 90 -82 90q-78 0 -78 -90v-842z" />
<glyph unicode="&#xf5;" d="M72 319v709q0 322 235 322q238 0 238 -322v-709q0 -319 -238 -319q-235 0 -235 319zM104 1430q0 51 28 83.5t75 32.5q27 0 57.5 -7t59.5 -15l54 -16q26 -7 42 -7q20 0 29.5 13.5t11.5 31.5h67q0 -59 -27.5 -87.5t-68.5 -28.5q-27 0 -56 7l-59 14q-29 7 -54 14.5t-44 7.5 q-23 0 -35 -9.5t-14 -33.5h-66zM229 254q0 -92 78 -92q82 0 82 92v842q0 90 -82 90q-78 0 -78 -90v-842z" />
<glyph unicode="&#xf6;" d="M72 319v709q0 322 235 322q238 0 238 -322v-709q0 -319 -238 -319q-235 0 -235 319zM100 1430v116h109v-116h-109zM229 254q0 -92 78 -92q82 0 82 92v842q0 90 -82 90q-78 0 -78 -90v-842zM408 1430v116h112v-116h-112z" />
<glyph unicode="&#xf7;" horiz-adv-x="690" d="M23 854v145h641v-145h-641zM252 506v219h164v-219h-164zM252 1128v220h164v-220h-164z" />
<glyph unicode="&#xf8;" d="M72 319v709q0 322 235 322q238 0 238 -322v-709q0 -319 -238 -319q-235 0 -235 319zM136 0l261 1351h82l-259 -1351h-84zM229 254q0 -92 78 -92q82 0 82 92v842q0 90 -82 90q-78 0 -78 -90v-842z" />
<glyph unicode="&#xf9;" d="M72 319v1031h157v-1096q0 -90 80 -90t80 90v1096h156v-1350h-156v55q-29 -55 -131 -55q-186 0 -186 319zM78 1546h196l109 -116h-92z" />
<glyph unicode="&#xfa;" d="M72 319v1031h157v-1096q0 -90 80 -90t80 90v1096h156v-1350h-156v55q-29 -55 -131 -55q-186 0 -186 319zM193 1430l108 116h199l-213 -116h-94z" />
<glyph unicode="&#xfb;" d="M72 319v1031h157v-1096q0 -90 80 -90t80 90v1096h156v-1350h-156v55q-29 -55 -131 -55q-186 0 -186 319zM88 1430l166 116h104l164 -116h-164l-53 92l-51 -92h-166z" />
<glyph unicode="&#xfc;" d="M72 319v1031h157v-1096q0 -90 80 -90t80 90v1096h156v-1350h-156v55q-29 -55 -131 -55q-186 0 -186 319zM98 1430v116h109v-116h-109zM406 1430v116h112v-116h-112z" />
<glyph unicode="&#xfd;" horiz-adv-x="559" d="M18 1350h162l74 -600l25 -287l24 285l74 602h164l-181 -1350q-23 -166 -105.5 -242.5t-211.5 -76.5v161q137 8 162 158zM156 1430l108 116h199l-213 -116h-94z" />
<glyph unicode="&#xfe;" d="M72 -319v2136h157v-523q27 55 129 56q186 0 187 -322v-709q0 -319 -205 -319q-72 0 -111 27v-346h-157zM229 254q0 -92 80 -92t80 92v842q0 90 -80 90t-80 -90v-842z" />
<glyph unicode="&#xff;" horiz-adv-x="559" d="M18 1350h162l74 -600l25 -287l24 285l74 602h164l-181 -1350q-23 -166 -105.5 -242.5t-211.5 -76.5v161q137 8 162 158zM72 1430v116h108v-116h-108zM379 1430v116h113v-116h-113z" />
<glyph unicode="&#x152;" horiz-adv-x="894" d="M72 399v1018q0 399 235 400q88 0 129 -48v48h416v-181h-234v-618h113v-182h-113v-654h234v-182h-416v45q-39 -45 -125 -45q-239 0 -239 399zM254 287q0 -104 92 -105q90 0 90 105v1243q0 106 -90 106q-92 0 -92 -106v-1243z" />
<glyph unicode="&#x153;" horiz-adv-x="882" d="M53 319v709q0 322 234 322q100 0 157 -82q57 82 158 82q238 0 238 -322v-383h-316v-391q0 -92 78 -92q82 0 82 92v260h156v-195q0 -319 -238 -319q-100 0 -158 80q-59 -80 -157 -80q-234 0 -234 319zM209 254q0 -92 78 -92q82 0 82 92v842q0 90 -82 90q-78 0 -78 -90 v-842zM524 805h160v291q0 90 -82 90q-78 0 -78 -90v-291z" />
<glyph unicode="&#x178;" horiz-adv-x="659" d="M0 1817h186l109 -562l35 -243l32 243l109 562h188l-239 -1041v-776h-182v776zM115 1898v117h108v-117h-108zM422 1898v117h113v-117h-113z" />
<glyph unicode="&#x2c6;" horiz-adv-x="471" d="M20 1898l166 117h105l164 -117h-164l-53 93l-52 -93h-166z" />
<glyph unicode="&#x2dc;" horiz-adv-x="473" d="M27 1898q0 51 27.5 84t74.5 33q27 0 57.5 -7t59.5 -15l54 -16q26 -7 42 -7q20 0 29.5 13.5t11.5 31.5h68q0 -59 -28 -88t-69 -29q-27 0 -56 8l-58 14q-29 7 -54.5 14.5t-44.5 7.5q-23 0 -35 -9.5t-14 -34.5h-65z" />
<glyph unicode="&#x2013;" horiz-adv-x="620" d="M37 854v145h530v-145h-530z" />
<glyph unicode="&#x2014;" horiz-adv-x="995" d="M37 854v145h909v-145h-909z" />
<glyph unicode="&#x2018;" horiz-adv-x="227" d="M39 1470v181q0 86 33.5 126t101.5 40v-80q-72 0 -72 -78h101v-189h-164z" />
<glyph unicode="&#x2019;" horiz-adv-x="241" d="M53 1630v189h162v-181q0 -92 -34 -128.5t-101 -36.5v77q72 0 72 80h-99z" />
<glyph unicode="&#x201a;" horiz-adv-x="256" d="M41 29v188h164v-180q0 -86 -34 -126t-103 -40v80q74 0 73 78h-100z" />
<glyph unicode="&#x201c;" horiz-adv-x="475" d="M61 1470v181q0 86 34 126t102 40v-80q-72 0 -72 -78h100v-189h-164zM289 1470v181q0 86 33.5 126t101.5 40v-80q-72 0 -72 -78h101v-189h-164z" />
<glyph unicode="&#x201d;" horiz-adv-x="460" d="M47 1630v189h164v-181q0 -92 -34 -128.5t-101 -36.5v77q72 0 71 80h-100zM274 1630v189h164v-181q0 -92 -33.5 -128.5t-101.5 -36.5v77q72 0 72 80h-101z" />
<glyph unicode="&#x201e;" horiz-adv-x="466" d="M41 29v188h164v-180q0 -86 -34 -126t-103 -40v80q74 0 73 78h-100zM264 29v188h164v-180q0 -86 -34 -126t-103 -40v80q74 0 74 78h-101z" />
<glyph unicode="&#x2022;" horiz-adv-x="1038" d="M41 743q0 98 38 186.5t103.5 154t152.5 103.5t187.5 38t187.5 -38t152.5 -103.5t103.5 -153.5t38 -187q0 -102 -38 -189t-103.5 -152.5t-152.5 -102.5t-187.5 -37t-187.5 37t-152.5 102.5t-103.5 152.5t-38 189z" />
<glyph unicode="&#x2026;" horiz-adv-x="1888" d="M319 0v217h164v-217h-164zM856 0v217h164v-217h-164zM1393 0v217h163v-217h-163z" />
<glyph unicode="&#x2039;" horiz-adv-x="800" d="M147 586l355 504h164l-291 -504l289 -506h-162z" />
<glyph unicode="&#x203a;" horiz-adv-x="821" d="M154 80l297 506l-297 504h168l348 -504l-348 -506h-168z" />
<glyph unicode="&#x20ac;" horiz-adv-x="681" d="M17 759v85h585v-85h-585zM17 966v86h585v-86h-585zM72 399v1018q0 399 274 400q262 0 262 -400v-166h-172v279q0 106 -90 106q-92 0 -92 -106v-1243q0 -104 92 -105q90 0 90 105v338h172v-226q0 -399 -262 -399q-274 0 -274 399z" />
<glyph unicode="&#x2122;" horiz-adv-x="1095" d="M68 1673v144h376v-144h-131v-563h-139v563h-106zM506 1110v707h145l90 -600l90 600h150v-707h-107v506l-77 -506h-113l-74 492v-492h-104z" />
<glyph unicode="&#xe000;" horiz-adv-x="1350" d="M0 1350h1350v-1350h-1350v1350z" />
<glyph unicode="&#xfb01;" horiz-adv-x="581" d="M8 1186v164h53v147q0 319 261 320h206v-164h-206q-104 0 -105 -90v-213h311v-1350h-155v1186h-156v-1186h-156v1186h-53z" />
<glyph unicode="&#xfb02;" horiz-adv-x="581" d="M8 1186v164h53v147q0 319 261 320h206v-1817h-155v1186h-156v-1186h-156v1186h-53zM217 1350h156v303h-51q-104 0 -105 -90v-213z" />
<glyph unicode="&#xfb03;" horiz-adv-x="942" d="M0 1186v164h59v147q0 319 260 320v-164q-104 0 -104 -90v-213h72v-164h-72v-1186h-156v1186h-59zM319 1186v164h60v147q0 319 260 320v-164q-104 0 -104 -90v-213h71v-164h-71v-1186h-156v1186h-60zM711 0v1350h157v-1350h-157zM711 1569v248h157v-248h-157z" />
<glyph unicode="&#xfb04;" horiz-adv-x="903" d="M0 1186v164h59v147q0 319 260 320v-164q-104 0 -104 -90v-213h72v-164h-72v-1186h-156v1186h-59zM319 1186v164h60v147q0 319 260 320v-164q-104 0 -104 -90v-213h71v-164h-71v-1186h-156v1186h-60zM692 0v1817h156v-1817h-156z" />
</font>
</defs>
</svg>
